<mxfile host="app.diagrams.net" modified="2022-10-18T08:24:47.711Z" agent="5.0 (Windows NT 10.0; Win64; x64) AppleWebKit/537.36 (KHTML, like Gecko) Chrome/106.0.0.0 Safari/537.36" etag="T4uzK-mXj-mRPO1tSwax" version="20.4.1" type="github">
  <diagram id="9GcgEVvwCNJag2cAYSv9" name="第 1 页">
    <mxGraphModel dx="2377" dy="835" grid="1" gridSize="10" guides="1" tooltips="1" connect="1" arrows="1" fold="1" page="1" pageScale="1" pageWidth="827" pageHeight="1169" math="0" shadow="0">
      <root>
        <mxCell id="0" />
        <mxCell id="1" parent="0" />
        <mxCell id="rAQnQ71XHYPKnEBQaQur-4" value="" style="ellipse;whiteSpace=wrap;html=1;fillColor=#3949AB;" vertex="1" parent="1">
          <mxGeometry x="-60" y="235" width="960" height="540" as="geometry" />
        </mxCell>
        <mxCell id="rAQnQ71XHYPKnEBQaQur-1" value="" style="ellipse;whiteSpace=wrap;html=1;fillColor=#AC48A5;" vertex="1" parent="1">
          <mxGeometry x="64" y="285" width="700" height="440" as="geometry" />
        </mxCell>
        <mxCell id="rAQnQ71XHYPKnEBQaQur-2" value="" style="ellipse;whiteSpace=wrap;html=1;fillColor=#F0588B;" vertex="1" parent="1">
          <mxGeometry x="140" y="350" width="550" height="290" as="geometry" />
        </mxCell>
        <mxCell id="rAQnQ71XHYPKnEBQaQur-3" value="&lt;font style=&quot;font-size: 18px;&quot;&gt;模块&lt;/font&gt;" style="ellipse;whiteSpace=wrap;html=1;fillColor=#EEEEEE;" vertex="1" parent="1">
          <mxGeometry x="279" y="412.5" width="270" height="165" as="geometry" />
        </mxCell>
        <mxCell id="rAQnQ71XHYPKnEBQaQur-5" value="&lt;font color=&quot;#ffffff&quot;&gt;报告&lt;/font&gt;" style="text;html=1;strokeColor=none;fillColor=none;align=center;verticalAlign=middle;whiteSpace=wrap;rounded=0;fontSize=18;" vertex="1" parent="1">
          <mxGeometry x="270" y="390" width="60" height="30" as="geometry" />
        </mxCell>
        <mxCell id="rAQnQ71XHYPKnEBQaQur-6" value="&lt;font color=&quot;#ffffff&quot;&gt;看板&lt;/font&gt;" style="text;html=1;strokeColor=none;fillColor=none;align=center;verticalAlign=middle;whiteSpace=wrap;rounded=0;fontSize=18;" vertex="1" parent="1">
          <mxGeometry x="160" y="360" width="60" height="30" as="geometry" />
        </mxCell>
        <mxCell id="rAQnQ71XHYPKnEBQaQur-7" value="&lt;font color=&quot;#ffffff&quot;&gt;Dashboard&lt;/font&gt;" style="text;html=1;strokeColor=none;fillColor=none;align=center;verticalAlign=middle;whiteSpace=wrap;rounded=0;fontSize=18;" vertex="1" parent="1">
          <mxGeometry x="20" y="350" width="110" height="30" as="geometry" />
        </mxCell>
      </root>
    </mxGraphModel>
  </diagram>
</mxfile>
